<?xml version="1.0" encoding="UTF-8"?>
<svg width="800px" height="200px" viewBox="0 0 800 200" version="1.1" xmlns="http://www.w3.org/2000/svg" xmlns:xlink="http://www.w3.org/1999/xlink">
    <defs>
        <linearGradient x1="0%" y1="0%" x2="100%" y2="100%" id="linearGradient">
            <stop stop-color="#0F2027" offset="0%"></stop>
            <stop stop-color="#203A43" offset="50%"></stop>
            <stop stop-color="#2C5364" offset="100%"></stop>
        </linearGradient>
    </defs>
    <g id="Header-Banner" stroke="none" stroke-width="1" fill="none" fill-rule="evenodd">
        <rect id="Background" fill="url(#linearGradient)" x="0" y="0" width="800" height="200" rx="10"></rect>
        <text id="Name" font-family="Arial, sans-serif" font-size="48" font-weight="bold" fill="#FFFFFF">
            <tspan x="50" y="80">فيصل العنقودي</tspan>
        </text>
        <text id="Title" font-family="Arial, sans-serif" font-size="24" font-weight="normal" fill="#E0E0E0">
            <tspan x="50" y="120">الأمن السيبراني | الذكاء الاصطناعي</tspan>
        </text>
        <g id="Icons" transform="translate(600, 50)" fill="#FFFFFF">
            <path d="M40,0 C17.92,0 0,17.92 0,40 C0,57.76 11.48,72.76 27.4,78.2 C29.4,78.6 30.12,77.4 30.12,76.36 C30.12,75.44 30.08,72.92 30.08,69.56 C20,71.56 17.4,67.16 16.6,64.88 C16.16,63.76 14.2,60.16 12.5,59.24 C11.1,58.52 9.1,56.52 12.46,56.48 C15.6,56.44 17.84,59.44 18.56,60.6 C22.16,66.72 27.88,65.04 30.28,64 C30.68,61.36 31.72,59.56 32.84,58.52 C23.92,57.48 14.6,53.96 14.6,38.44 C14.6,34.04 16.16,30.44 18.64,27.68 C18.2,26.68 16.8,22.52 19,16.92 C19,16.92 22.36,15.88 30.12,21.16 C33.32,20.28 36.72,19.84 40.12,19.84 C43.52,19.84 46.92,20.28 50.12,21.16 C57.88,15.84 61.24,16.92 61.24,16.92 C63.44,22.52 62.04,26.68 61.6,27.68 C64.08,30.44 65.64,34 65.64,38.44 C65.64,54 56.28,57.48 47.36,58.52 C48.76,59.8 49.96,62.28 49.96,66.16 C49.96,71.76 49.92,75.04 49.92,76.36 C49.92,77.4 50.64,78.64 52.64,78.2 C68.52,72.76 80,57.72 80,40 C80,17.92 62.08,0 40,0 Z" id="GitHub"></path>
        </g>
    </g>
</svg>